<?xml version="1.0" standalone="no"?>
<!DOCTYPE svg PUBLIC "-//W3C//DTD SVG 20010904//EN"
 "http://www.w3.org/TR/2001/REC-SVG-20010904/DTD/svg10.dtd">
<svg version="1.0" xmlns="http://www.w3.org/2000/svg"
 width="200px" height="200px" viewBox="0 0 1350.000000 1350.000000"
 preserveAspectRatio="xMidYMid meet">
<metadata>
Created by potrace 1.10, written by Peter Selinger 2001-2011
</metadata>
<g transform="translate(0.000000,1350.000000) scale(0.100000,-0.100000)"
fill="#000000" stroke="none">
<path d="M6590 10884 c-68 -4 -242 -27 -345 -46 -33 -6 -80 -14 -105 -19 -79
-13 -194 -37 -235 -49 -22 -6 -62 -18 -90 -25 -147 -40 -169 -47 -282 -89
-209 -77 -227 -84 -403 -171 -74 -36 -162 -81 -195 -100 -33 -19 -69 -39 -80
-45 -33 -18 -101 -60 -220 -139 -64 -42 -343 -247 -355 -260 -3 -4 -54 -50
-115 -103 -200 -175 -397 -391 -571 -623 -101 -135 -218 -308 -240 -355 -4 -8
-33 -58 -63 -110 -56 -96 -181 -341 -181 -357 0 -4 -13 -35 -29 -68 -37 -78
-47 -104 -72 -178 -11 -34 -26 -75 -34 -92 -12 -28 -21 -57 -58 -195 -8 -30
-22 -80 -30 -110 -22 -77 -37 -147 -46 -205 -4 -27 -13 -77 -19 -110 -82 -431
-80 -1016 4 -1435 49 -244 79 -362 131 -515 14 -38 28 -83 32 -100 5 -16 13
-41 19 -55 5 -14 18 -45 27 -70 10 -25 24 -60 32 -77 7 -18 20 -47 27 -65 35
-81 174 -360 214 -428 315 -535 746 -993 1268 -1348 185 -125 445 -270 634
-351 30 -13 74 -32 97 -42 23 -11 48 -19 55 -19 8 0 18 -4 23 -8 6 -5 39 -19
75 -31 36 -13 72 -26 80 -31 9 -4 31 -11 50 -15 19 -4 41 -11 50 -16 8 -4 49
-18 90 -30 41 -11 94 -27 118 -35 81 -26 96 -12 35 33 -158 116 -407 363 -491
485 -27 39 -48 55 -130 95 -104 52 -287 160 -392 232 -222 151 -235 161 -405
307 -132 114 -282 263 -391 389 -102 117 -336 439 -367 505 -4 8 -16 29 -26
45 -65 101 -209 396 -241 495 -5 14 -18 50 -30 80 -11 30 -30 82 -41 115 -11
33 -24 74 -30 90 -6 17 -15 46 -19 65 -5 19 -14 55 -21 80 -6 25 -17 68 -24
95 -12 48 -29 132 -55 275 -30 162 -50 544 -39 740 16 284 30 402 65 542 8 32
14 68 14 82 0 13 6 46 14 72 8 27 19 69 25 94 6 25 18 68 27 95 8 28 19 64 24
80 12 45 53 156 79 220 5 11 17 40 26 65 59 150 179 386 277 545 27 44 55 89
61 100 7 11 30 44 52 75 22 30 53 73 68 95 150 220 472 555 700 727 45 34 84
65 87 68 8 11 188 135 256 177 203 127 311 183 534 281 19 8 43 19 52 23 36
18 273 98 368 125 30 9 70 20 87 25 18 6 54 14 80 19 27 5 68 13 93 19 86 19
205 40 255 45 28 3 82 10 120 16 39 6 194 11 346 11 268 1 398 -9 584 -42 33
-6 85 -15 115 -19 103 -15 291 -65 470 -124 135 -45 186 -64 208 -75 9 -5 56
-25 103 -45 108 -45 324 -155 404 -206 17 -11 39 -24 50 -29 24 -11 147 -94
260 -174 276 -198 574 -492 801 -792 62 -82 214 -302 214 -310 0 -3 57 -103
100 -175 28 -45 146 -298 186 -395 6 -16 19 -47 28 -68 9 -21 16 -44 16 -52 0
-7 6 -26 14 -42 8 -15 22 -55 31 -88 10 -33 24 -75 31 -93 8 -18 14 -40 14
-50 0 -9 6 -34 14 -57 18 -52 37 -128 46 -185 14 -83 31 -175 41 -225 6 -27
17 -151 25 -275 20 -312 0 -655 -52 -890 -8 -36 -14 -74 -14 -84 0 -11 -6 -42
-14 -70 -8 -28 -22 -80 -31 -116 -25 -95 -97 -324 -123 -390 -5 -14 -18 -45
-27 -70 -29 -75 -128 -293 -145 -320 -5 -8 -21 -37 -35 -65 -15 -27 -32 -59
-38 -70 -107 -181 -141 -231 -266 -400 -102 -137 -172 -217 -331 -376 -244
-244 -475 -425 -760 -593 -52 -31 -102 -61 -110 -66 -23 -14 -169 -85 -235
-114 -33 -15 -73 -33 -90 -41 -63 -28 -102 -44 -165 -64 -36 -12 -74 -26 -85
-31 -11 -5 -38 -14 -60 -20 -22 -6 -62 -18 -90 -26 -27 -9 -77 -22 -110 -30
-33 -8 -87 -22 -120 -30 -33 -8 -73 -18 -90 -20 -27 -5 -35 -17 -76 -102 -26
-54 -54 -113 -62 -132 -9 -19 -27 -61 -42 -94 -14 -32 -24 -61 -21 -63 7 -7
175 13 261 32 39 8 94 19 123 25 29 6 88 20 130 32 42 11 95 24 117 30 22 6
54 16 72 24 17 8 40 14 51 14 12 0 23 4 26 9 3 5 23 12 43 16 21 4 43 10 48
14 6 4 43 18 83 30 40 13 75 27 78 32 3 5 12 9 20 9 15 0 39 10 174 72 151 70
179 84 248 125 41 24 76 43 79 43 5 0 121 69 138 83 6 4 46 31 90 59 44 29 82
54 85 57 3 4 25 20 50 36 201 135 518 426 726 665 127 147 332 426 367 500 4
8 16 29 27 45 21 33 29 47 82 145 76 140 119 230 182 385 21 50 44 103 52 118
8 16 14 35 14 42 0 8 6 29 14 47 21 51 37 99 46 138 4 19 13 49 18 65 39 116
79 294 116 525 72 446 60 996 -30 1440 -33 161 -93 382 -120 448 -8 18 -14 41
-14 52 0 10 -4 21 -9 25 -5 3 -13 20 -17 38 -3 17 -13 48 -22 67 -8 19 -21 49
-27 65 -13 30 -21 48 -71 160 -38 87 -130 271 -170 340 -19 33 -39 69 -45 80
-47 93 -284 428 -384 544 -147 171 -267 297 -406 426 -101 93 -302 256 -399
323 -36 25 -92 64 -125 86 -60 42 -197 126 -225 139 -8 4 -28 16 -45 26 -72
47 -425 215 -505 241 -14 5 -50 18 -80 30 -98 38 -358 120 -380 120 -8 0 -35
6 -60 14 -73 24 -280 64 -470 91 -84 13 -200 18 -435 20 -176 1 -349 1 -385
-1z"/>
<path d="M7644 9881 c-21 -20 -89 -83 -151 -139 -133 -121 -288 -293 -413
-457 -50 -66 -95 -126 -100 -134 -6 -11 -36 -14 -141 -12 -139 2 -371 -24
-479 -53 -100 -27 -155 -44 -180 -54 -14 -6 -50 -20 -80 -32 -172 -69 -320
-159 -467 -283 -191 -161 -371 -404 -434 -588 -17 -51 -6 -73 124 -248 42 -57
77 -112 77 -122 0 -9 -59 -73 -131 -141 -73 -67 -143 -134 -158 -148 -14 -15
-71 -66 -126 -115 -55 -50 -105 -94 -111 -100 -6 -5 -53 -48 -105 -95 -52 -47
-126 -114 -165 -150 -75 -68 -86 -85 -56 -94 9 -2 128 -5 264 -5 270 0 290 -4
325 -58 27 -41 23 -128 -9 -178 -57 -89 -154 -150 -270 -171 -21 -3 -38 -11
-38 -16 0 -18 85 -110 140 -153 31 -24 83 -56 115 -72 109 -54 152 -63 295
-63 132 0 181 8 285 47 46 18 318 152 450 223 87 47 449 228 510 256 28 12
150 59 235 89 19 7 60 20 90 28 30 9 79 23 109 31 29 9 63 16 75 16 11 0 53 7
91 15 103 22 447 21 466 -1 9 -11 13 -61 13 -182 1 -155 -8 -248 -35 -357 -6
-22 -14 -56 -19 -75 -9 -38 -35 -110 -49 -138 -5 -9 -19 -39 -31 -67 -13 -27
-56 -100 -96 -160 -89 -136 -224 -270 -370 -368 -130 -86 -155 -88 -82 -4 48
55 97 122 150 205 19 30 84 160 103 207 41 98 95 342 95 428 0 40 -1 41 -28
28 -9 -5 -37 -18 -62 -29 -159 -72 -377 -183 -490 -250 -19 -11 -57 -33 -85
-47 -27 -15 -76 -45 -109 -66 -32 -22 -60 -39 -63 -39 -2 0 -24 -15 -47 -32
-24 -18 -54 -40 -67 -48 -144 -95 -406 -321 -510 -441 -59 -68 -200 -254 -213
-279 -11 -24 -31 -57 -43 -71 -18 -24 -73 -131 -73 -145 0 -23 -42 -86 -50
-74 -4 6 -7 54 -8 107 -2 125 42 375 77 442 16 28 -2 34 -25 8 -51 -57 -149
-231 -189 -337 -9 -25 -23 -60 -31 -78 -8 -18 -14 -40 -14 -48 0 -9 -7 -37
-15 -63 -44 -142 -62 -523 -30 -656 8 -33 14 -73 15 -89 0 -15 6 -49 14 -75 8
-25 22 -73 31 -106 35 -122 82 -232 150 -350 19 -33 38 -67 42 -75 9 -21 151
-207 162 -214 19 -12 22 16 7 62 -38 119 -55 331 -36 467 7 50 16 115 20 145
9 70 56 235 78 276 6 11 20 39 32 64 23 47 27 55 74 135 69 117 257 326 264
293 2 -9 -8 -36 -22 -60 -33 -57 -87 -167 -97 -198 -4 -14 -17 -50 -29 -80
-29 -74 -49 -145 -60 -205 -5 -27 -14 -68 -21 -90 -9 -27 -13 -115 -13 -265 0
-183 3 -239 17 -300 27 -110 47 -181 63 -218 8 -18 14 -40 14 -48 0 -9 6 -28
14 -42 8 -15 24 -47 36 -72 48 -100 131 -220 151 -220 4 0 9 84 12 187 4 174
11 233 39 353 6 25 14 61 18 80 22 98 109 303 179 420 11 19 25 44 31 55 27
52 133 206 191 276 82 99 209 231 334 344 37 34 236 184 572 432 172 127 211
160 349 298 92 92 234 261 234 279 0 3 12 24 28 48 42 67 49 79 78 137 78 161
110 258 144 446 33 184 22 430 -26 543 -8 18 -14 40 -14 48 0 9 -6 28 -14 42
-7 15 -22 45 -32 67 -11 22 -29 57 -41 77 -31 51 -31 71 0 55 64 -34 180 -119
243 -179 39 -38 74 -68 78 -68 24 0 -9 127 -74 290 -156 388 -493 780 -862
1005 -124 75 -289 151 -413 189 -27 8 -72 22 -99 31 -27 8 -63 15 -80 15 -70
0 -91 21 -67 68 5 9 32 64 60 122 29 58 63 125 78 150 32 57 195 300 240 360
54 71 234 270 254 280 33 18 31 22 78 -110 7 -19 17 -57 21 -85 5 -27 13 -74
19 -104 25 -126 9 -376 -34 -527 -23 -79 -21 -88 31 -115 25 -13 53 -29 62
-34 52 -32 134 -88 181 -124 30 -23 58 -38 62 -34 39 42 55 531 23 703 -25
134 -64 288 -91 355 -8 22 -22 58 -31 80 -19 51 -108 231 -133 270 -10 17 -22
37 -27 45 -22 43 -69 109 -88 123 -19 14 -23 13 -60 -22z m-909 -1780 c8 -14
-64 -142 -120 -210 -103 -127 -173 -175 -321 -221 -54 -17 -128 -40 -164 -51
-36 -11 -97 -37 -137 -57 -40 -20 -75 -34 -77 -31 -9 8 35 136 68 199 24 46
88 132 131 174 97 97 235 166 390 194 68 12 222 14 230 3z"/>
<path d="M5463 9898 c-10 -17 -32 -75 -42 -113 -5 -16 -13 -41 -19 -55 -15
-36 -38 -131 -58 -240 -25 -132 -25 -525 0 -616 9 -34 16 -76 16 -92 0 -17 5
-34 12 -38 11 -7 73 54 165 164 l36 43 -16 68 c-31 127 -20 420 17 450 9 7 50
-40 150 -174 110 -148 143 -185 161 -185 13 0 26 4 30 9 5 9 67 41 120 62 11
4 42 17 69 28 27 12 57 21 67 21 35 0 20 38 -41 104 -111 118 -281 279 -430
406 -47 40 -96 82 -110 94 -48 42 -97 76 -108 76 -6 0 -14 -6 -19 -12z"/>
<path d="M8510 8315 c0 -53 -7 -130 -16 -172 -8 -42 -16 -109 -17 -147 -2 -68
0 -74 44 -146 24 -41 60 -106 78 -145 18 -38 37 -78 42 -87 32 -61 99 -278
123 -398 8 -41 20 -102 27 -135 17 -86 24 -437 10 -521 -7 -38 -16 -95 -21
-126 -8 -57 -13 -77 -44 -174 -9 -29 -16 -57 -16 -64 0 -7 -6 -26 -14 -43 -7
-18 -37 -88 -66 -156 -68 -162 -120 -257 -232 -421 -194 -287 -406 -483 -903
-840 -42 -30 -84 -62 -93 -70 -9 -8 -39 -33 -67 -55 -420 -334 -690 -700 -798
-1085 -8 -30 -20 -73 -27 -95 -18 -64 -40 -262 -40 -365 0 -119 24 -303 51
-395 11 -38 24 -83 29 -100 34 -121 208 -434 232 -419 4 3 8 26 8 52 0 57 34
317 50 387 27 118 92 321 119 373 5 9 20 40 33 67 23 45 68 129 93 173 112
193 370 481 580 647 28 22 52 43 55 47 6 7 105 79 204 148 36 25 95 65 130 90
35 25 94 65 130 90 118 80 319 232 391 294 212 183 412 418 532 621 59 102
155 317 188 425 10 30 24 73 31 95 8 23 14 49 14 59 0 11 6 42 14 70 62 223
62 625 0 871 -25 96 -46 168 -61 202 -14 34 -17 63 -5 63 18 0 159 -100 222
-157 36 -33 47 -14 27 48 -10 28 -17 56 -17 63 0 21 -79 251 -110 321 -7 17
-24 55 -38 85 -128 290 -363 628 -627 900 -108 112 -224 220 -235 220 -6 0
-10 -39 -10 -95z"/>
</g>
</svg>
